<svg width="29" height="20" viewBox="0 0 29 20" fill="none" xmlns="http://www.w3.org/2000/svg">
<path d="M26.1217 20H2.37102C1.06193 19.9988 0.00242668 18.9393 0 17.6302V2.36979C0.00239965 1.0607 1.0619 0.00119798 2.37102 0H26.1217C27.4308 0.00120013 28.4903 1.0607 28.4928 2.36979V17.6302C28.4904 18.9393 27.4309 19.9988 26.1217 20ZM1.91978 3.28296V17.6301C1.92098 17.8797 2.12256 18.0801 2.37096 18.0801H26.1217C26.3701 18.0801 26.5716 17.8797 26.5729 17.6301V3.28296L15.932 14.0353C15.0021 14.9652 13.495 14.9664 12.5639 14.0389L1.91978 3.28296ZM3.27205 1.91987L13.9249 12.6854C14.1048 12.8606 14.3928 12.8594 14.5716 12.6806L25.2207 1.91999L3.27205 1.91987Z" fill="#737373"/>
</svg>
