<svg width="21" height="26" viewBox="0 0 21 26" fill="none" xmlns="http://www.w3.org/2000/svg">
<path d="M18.3341 9.33371H18.0003V7.66622C18.0003 4.92746 16.5391 2.39613 14.1677 1.02749C11.7952 -0.342496 8.87265 -0.342496 6.50017 1.02749C4.1289 2.39623 2.66752 4.92765 2.66752 7.66622V9.33371H2.33376C1.04752 9.33996 0.00752001 10.3812 0 11.6662V23.6662C0.00750017 24.9525 1.04749 25.9925 2.33376 26H18.3338C19.62 25.9925 20.66 24.9525 20.6675 23.6662V11.6662C20.66 10.3812 19.6204 9.33998 18.3341 9.33371ZM4.66784 7.66622C4.66784 5.64247 5.74785 3.77117 7.50036 2.75869C9.25412 1.74743 11.414 1.74743 13.1679 2.75869C14.9204 3.7712 16.0004 5.64244 16.0004 7.66622V9.33371H4.66791L4.66784 7.66622ZM18.6679 23.6662C18.6679 23.755 18.6329 23.84 18.5704 23.9025C18.5079 23.965 18.4229 24 18.3341 24H2.33409C2.15034 24 2.00033 23.8512 2.00033 23.6662V11.6662C2.00033 11.4825 2.15033 11.3337 2.33409 11.3337H18.3341C18.4229 11.3337 18.5079 11.3687 18.5704 11.4312C18.6329 11.4937 18.6679 11.5787 18.6679 11.6662V23.6662ZM12.0004 15.6662C12.0079 16.1925 11.7591 16.69 11.3341 17V19C11.3341 19.5525 10.8866 20 10.3341 20C9.78161 20 9.33412 19.5525 9.33412 19V17C8.90913 16.69 8.66036 16.1925 8.66788 15.6662C8.66788 14.7462 9.41412 14 10.3341 14C11.2541 14 12.0004 14.7462 12.0004 15.6662Z" fill="#737373"/>
</svg>
